<?xml version="1.0" standalone="no"?>
<!DOCTYPE svg PUBLIC "-//W3C//DTD SVG 20010904//EN"
 "http://www.w3.org/TR/2001/REC-SVG-20010904/DTD/svg10.dtd">
<svg version="1.0" xmlns="http://www.w3.org/2000/svg"
 width="1026.000000pt" height="1026.000000pt" viewBox="0 0 1026.000000 1026.000000"
 preserveAspectRatio="xMidYMid meet">
<metadata>
Created by potrace 1.11, written by Peter Selinger 2001-2013
</metadata>
<g transform="translate(0.000000,1026.000000) scale(0.100000,-0.100000)"
fill="#000000" stroke="none">
<path d="M5117 8514 c-1 -1 -90 -4 -197 -7 -107 -4 -206 -8 -220 -11 -14 -2
-52 -7 -85 -10 -33 -4 -71 -8 -85 -10 -102 -15 -126 -19 -131 -22 -4 -2 -24
-6 -45 -9 -109 -16 -344 -98 -596 -209 -422 -184 -771 -416 -1075 -712 -114
-112 -146 -146 -251 -271 -344 -409 -652 -1037 -718 -1463 -41 -270 -66 -342
-142 -411 -78 -71 -80 -72 -327 -224 -88 -54 -183 -116 -212 -137 -29 -21 -57
-38 -63 -38 -5 0 -10 -3 -10 -7 0 -5 -17 -19 -37 -33 -57 -38 -318 -245 -359
-284 -12 -12 -51 -47 -86 -78 -188 -167 -371 -381 -424 -497 -52 -112 -54
-123 -54 -325 0 -167 3 -196 20 -233 47 -105 155 -224 265 -294 33 -21 65 -42
70 -46 22 -17 194 -93 269 -117 168 -57 375 -100 571 -121 258 -27 750 -27
1020 0 92 9 231 25 265 30 14 2 48 7 75 10 28 4 61 8 75 10 14 2 48 7 75 10
28 4 64 9 80 12 17 3 44 6 60 8 17 2 80 11 140 20 61 9 119 18 130 20 53 7
112 16 135 20 14 3 39 7 55 9 17 3 116 19 220 36 105 18 204 34 220 37 17 2
111 20 210 39 99 20 194 38 210 40 17 3 68 15 115 26 47 11 92 21 100 23 8 2
132 33 275 70 143 37 268 68 278 70 101 21 516 134 697 190 47 15 101 31 120
37 84 23 606 203 665 228 11 5 101 39 200 75 99 36 189 70 200 75 11 5 110 45
220 89 570 225 1038 432 1528 674 225 110 541 279 612 327 22 15 47 29 55 33
29 11 190 123 312 217 152 118 380 343 476 472 39 54 72 99 72 102 0 3 12 22
26 43 37 55 99 189 123 267 26 86 30 302 6 382 -21 71 -86 167 -169 250 -154
154 -346 237 -687 298 -15 2 -53 8 -85 11 -33 4 -68 9 -79 11 -11 2 -60 6
-110 9 -49 4 -101 8 -115 10 -31 5 -283 14 -540 20 -107 3 -291 7 -409 10
l-215 6 -52 52 c-128 129 -334 327 -387 372 -289 246 -675 462 -1124 629 -137
51 -269 93 -333 107 -75 16 -82 18 -172 33 -79 13 -129 20 -253 32 -65 6 -394
21 -398 18z m3663 -1818 c69 -4 141 -8 160 -11 19 -2 62 -7 95 -10 105 -10
149 -16 205 -26 30 -5 73 -12 95 -15 74 -11 189 -45 238 -72 53 -28 106 -83
108 -110 5 -67 -29 -158 -83 -225 -128 -156 -404 -386 -693 -579 -176 -117
-280 -154 -305 -108 -6 10 -13 45 -16 77 -8 94 -28 183 -82 363 -50 167 -179
525 -214 593 -10 21 -18 51 -16 65 4 32 44 49 146 58 37 4 68 7 69 8 4 3 177
-2 293 -8z m-7144 -2047 c28 -55 45 -111 74 -249 38 -181 87 -339 171 -553 72
-182 113 -316 101 -329 -23 -24 -571 -26 -722 -3 -14 2 -65 7 -115 10 -49 4
-92 8 -95 10 -3 2 -31 6 -63 9 -248 27 -407 117 -407 230 1 82 59 174 194 310
143 143 442 374 646 501 172 107 191 112 216 64z"/>
<path d="M8480 4571 c-8 -5 -26 -13 -40 -19 -185 -78 -204 -87 -459 -206 -112
-53 -205 -96 -207 -96 -2 0 -37 -15 -76 -33 -394 -182 -1094 -441 -1703 -632
-349 -109 -1003 -294 -1136 -320 -9 -2 -33 -8 -55 -14 -34 -10 -182 -45 -399
-96 -33 -8 -98 -23 -145 -34 -47 -11 -101 -23 -120 -26 -19 -3 -63 -12 -96
-20 -34 -8 -73 -16 -85 -19 -13 -2 -105 -21 -204 -41 -99 -19 -191 -37 -205
-40 -130 -22 -215 -35 -265 -41 -33 -5 -62 -9 -65 -9 -10 -3 -157 -17 -210
-20 -155 -10 -287 -52 -327 -104 -19 -24 -15 -80 7 -126 106 -218 766 -618
1365 -825 104 -37 200 -66 241 -75 11 -2 57 -12 104 -23 224 -52 450 -76 715
-76 212 0 372 13 590 49 68 11 241 49 300 67 39 11 84 23 100 28 31 8 138 44
235 78 105 38 276 114 410 184 549 287 1010 700 1335 1198 115 176 171 278
268 491 54 118 141 363 162 458 2 9 16 67 30 129 15 67 25 135 23 165 -3 52
-3 52 -38 54 -19 1 -42 -1 -50 -6z"/>
</g>
</svg>
